<?xml version="1.0" encoding="UTF-8"?> <svg xmlns="http://www.w3.org/2000/svg" xmlns:xlink="http://www.w3.org/1999/xlink" version="1.1" x="0" y="0" width="502.32" height="188.82" viewBox="0, 0, 167.44, 62.94"><g id="Background"><rect x="0" y="0" width="167.44" height="62.94" fill="#000000" fill-opacity="0"></rect></g><g id="g10"><path d="M51.615,43.558 L58.17,43.558 C58.294,43.558 58.392,43.586 58.464,43.64 C58.536,43.693 58.582,43.766 58.6,43.856 L58.6,43.909 C58.582,43.964 58.571,44.013 58.571,44.057 C58.571,44.102 58.563,44.17 58.546,44.26 L58.034,46.309 C57.962,46.544 57.888,46.682 57.818,46.726 C57.744,46.773 57.62,46.796 57.44,46.796 L48.486,46.796 C48.307,46.796 48.171,46.754 48.082,46.673 C47.992,46.593 47.948,46.453 47.948,46.254 L47.948,28.861 C47.948,28.7 47.988,28.569 48.068,28.47 C48.15,28.372 48.288,28.322 48.486,28.322 L51.076,28.322 C51.238,28.322 51.366,28.368 51.467,28.456 C51.566,28.548 51.615,28.682 51.615,28.861 z" fill="#FFFFFF" id="path1100"></path><path d="M64.263,31.154 L64.263,36.493 L65.099,36.493 C66.286,36.493 67.095,36.264 67.526,35.805 C67.958,35.348 68.182,34.632 68.199,33.661 C68.199,32.781 67.984,32.142 67.555,31.746 C67.123,31.352 66.42,31.154 65.45,31.154 z M64.263,39.405 L64.263,46.254 C64.244,46.453 64.191,46.593 64.102,46.673 C64.012,46.754 63.884,46.794 63.723,46.794 L61.135,46.794 C60.955,46.794 60.82,46.754 60.73,46.673 C60.642,46.593 60.596,46.453 60.596,46.254 L60.596,28.861 C60.596,28.7 60.636,28.569 60.716,28.469 C60.798,28.372 60.936,28.321 61.135,28.321 L65.558,28.321 C66.564,28.321 67.387,28.385 68.027,28.51 C68.663,28.636 69.216,28.825 69.683,29.076 C70.366,29.492 70.898,30.061 71.275,30.79 C71.654,31.517 71.85,32.412 71.868,33.473 C71.868,35.27 71.31,36.713 70.195,37.8 C69.08,38.889 67.58,39.422 65.694,39.405 z" fill="#FFFFFF" id="path1104"></path><path d="M78.799,38.624 L78.799,43.882 L84.408,43.882 C84.588,43.882 84.723,43.933 84.812,44.03 C84.903,44.13 84.946,44.261 84.946,44.422 L84.946,46.256 C84.946,46.436 84.903,46.569 84.812,46.66 C84.723,46.75 84.588,46.796 84.408,46.796 L75.671,46.796 C75.491,46.796 75.355,46.754 75.264,46.674 C75.175,46.593 75.132,46.453 75.132,46.256 L75.132,28.861 C75.132,28.7 75.171,28.569 75.254,28.47 C75.334,28.372 75.472,28.322 75.671,28.322 L84.812,28.322 C84.884,28.322 84.946,28.336 85,28.362 C85.056,28.389 85.1,28.421 85.136,28.457 C85.154,28.51 85.167,28.565 85.176,28.618 C85.186,28.673 85.182,28.736 85.163,28.809 L84.624,30.83 C84.57,30.974 84.503,31.082 84.422,31.154 C84.34,31.226 84.238,31.253 84.111,31.234 L78.799,31.234 L78.799,35.712 L83.33,35.712 C83.492,35.712 83.622,35.757 83.719,35.846 C83.819,35.936 83.868,36.07 83.868,36.249 L83.868,38.085 C83.868,38.265 83.824,38.4 83.735,38.488 C83.644,38.58 83.508,38.624 83.33,38.624 z" fill="#FFFFFF" id="path1108"></path><path d="M90.961,36.52 L90.961,46.39 C90.961,46.534 90.92,46.637 90.839,46.701 C90.757,46.764 90.664,46.796 90.556,46.796 L88.263,46.796 C88.119,46.796 88.016,46.76 87.954,46.688 C87.891,46.616 87.859,46.517 87.859,46.39 L87.859,28.726 C87.859,28.601 87.895,28.502 87.967,28.43 C88.04,28.358 88.139,28.322 88.263,28.322 L90.77,28.322 C90.916,28.34 91.013,28.377 91.067,28.43 C91.123,28.484 91.184,28.565 91.257,28.673 L95.707,37.033 C95.976,37.573 96.251,38.185 96.528,38.866 C96.808,39.55 97.064,40.242 97.297,40.942 L97.351,40.942 C97.315,40.332 97.293,39.694 97.285,39.028 C97.275,38.364 97.271,37.833 97.271,37.437 L97.271,28.726 C97.271,28.618 97.301,28.529 97.365,28.457 C97.429,28.385 97.532,28.34 97.676,28.322 L99.968,28.322 C100.093,28.322 100.192,28.362 100.264,28.444 C100.336,28.525 100.371,28.618 100.371,28.726 L100.371,46.39 C100.371,46.517 100.336,46.616 100.264,46.688 C100.192,46.76 100.093,46.796 99.968,46.796 L97.917,46.796 C97.809,46.796 97.716,46.768 97.635,46.714 C97.553,46.66 97.476,46.562 97.405,46.418 L92.471,37.221 C91.985,36.358 91.643,35.67 91.444,35.158 C91.245,34.645 91.077,34.11 90.933,33.554 L90.879,33.554 C90.897,33.913 90.916,34.402 90.933,35.024 C90.952,35.644 90.961,36.142 90.961,36.52" fill="#FFFFFF" id="path1112"></path><path d="M112.776,40.052 L110.727,40.052 C110.529,40.052 110.389,40.008 110.308,39.917 C110.228,39.828 110.188,39.693 110.188,39.513 L110.188,37.68 C110.168,37.518 110.205,37.388 110.296,37.288 C110.387,37.189 110.529,37.14 110.727,37.14 L115.5,37.14 C115.679,37.14 115.815,37.189 115.904,37.288 C115.993,37.388 116.04,37.518 116.04,37.68 L116.04,45.257 C116.04,45.456 115.976,45.617 115.851,45.744 C115.724,45.869 115.492,46.021 115.151,46.201 C114.467,46.561 113.752,46.826 113.005,46.997 C112.26,47.168 111.483,47.253 110.673,47.253 C109.413,47.253 108.348,47.06 107.477,46.673 C106.604,46.288 105.863,45.689 105.252,44.88 C104.587,44.036 104.113,43.037 103.836,41.885 C103.557,40.736 103.419,39.422 103.419,37.95 C103.4,36.114 103.572,34.521 103.931,33.162 C104.289,31.804 104.867,30.704 105.657,29.86 C106.232,29.23 106.932,28.74 107.76,28.389 C108.587,28.038 109.549,27.862 110.645,27.862 C111.401,27.862 112.161,27.961 112.925,28.161 C113.689,28.357 114.42,28.654 115.123,29.049 C115.372,29.212 115.535,29.352 115.609,29.468 C115.679,29.585 115.679,29.724 115.609,29.886 L114.717,31.665 C114.647,31.81 114.583,31.894 114.531,31.921 C114.476,31.949 114.42,31.962 114.368,31.962 L114.3,31.962 C114.273,31.962 113.944,31.792 113.315,31.45 C112.885,31.234 112.471,31.069 112.075,30.95 C111.68,30.834 111.284,30.776 110.888,30.776 C110.081,30.776 109.428,30.982 108.933,31.396 C108.439,31.81 108.067,32.393 107.813,33.149 C107.635,33.634 107.491,34.328 107.384,35.225 C107.275,36.124 107.231,37.014 107.247,37.896 C107.231,39.278 107.352,40.47 107.613,41.468 C107.873,42.468 108.245,43.181 108.731,43.612 C108.984,43.846 109.299,44.025 109.673,44.15 C110.052,44.277 110.465,44.341 110.916,44.341 C111.203,44.341 111.504,44.304 111.819,44.233 C112.135,44.161 112.453,44.053 112.776,43.909 z" fill="#FFFFFF" id="path1116"></path><path d="M123.213,43.558 L129.765,43.558 C129.889,43.558 129.991,43.586 130.063,43.64 C130.133,43.693 130.179,43.766 130.199,43.856 L130.199,43.909 C130.179,43.964 130.169,44.013 130.169,44.057 C130.169,44.102 130.16,44.17 130.143,44.26 L129.632,46.309 C129.56,46.544 129.487,46.682 129.413,46.726 C129.343,46.773 129.216,46.796 129.037,46.796 L120.084,46.796 C119.905,46.796 119.769,46.753 119.68,46.673 C119.591,46.593 119.544,46.453 119.544,46.254 L119.544,28.861 C119.544,28.7 119.587,28.569 119.667,28.47 C119.748,28.372 119.887,28.322 120.084,28.322 L122.673,28.322 C122.835,28.322 122.965,28.368 123.064,28.456 C123.163,28.548 123.213,28.682 123.213,28.861 z" fill="#FFFFFF" id="path1120"></path><path d="M136.779,44.341 C137.749,44.341 138.473,43.774 138.949,42.641 C139.425,41.509 139.664,39.82 139.664,37.573 C139.664,35.27 139.417,33.564 138.921,32.448 C138.428,31.333 137.712,30.777 136.779,30.777 C135.825,30.794 135.107,31.356 134.621,32.461 C134.136,33.568 133.893,35.27 133.893,37.573 C133.893,39.82 134.127,41.509 134.595,42.641 C135.061,43.774 135.789,44.341 136.779,44.341 M143.495,37.573 C143.495,40.844 142.887,43.272 141.673,44.853 C140.46,46.436 138.828,47.236 136.779,47.254 C134.711,47.254 133.076,46.458 131.871,44.868 C130.667,43.277 130.064,40.844 130.064,37.573 C130.064,34.3 130.667,31.865 131.871,30.262 C133.076,28.664 134.711,27.864 136.779,27.864 C138.828,27.882 140.46,28.686 141.673,30.277 C142.887,31.869 143.495,34.3 143.495,37.573" fill="#FFFFFF" id="path1124"></path><path d="M164.203,29.238 L160.24,46.552 C160.184,46.732 160.115,46.857 160.023,46.929 C159.933,47.001 159.807,47.037 159.647,47.037 L157.164,47.037 C156.984,47.018 156.872,46.98 156.828,46.916 C156.784,46.85 156.751,46.732 156.733,46.552 L154.953,37.492 C154.808,36.825 154.688,36.12 154.589,35.374 C154.489,34.628 154.405,33.777 154.333,32.825 L154.28,32.825 C154.225,33.562 154.132,34.394 153.996,35.318 C153.861,36.245 153.731,36.969 153.604,37.492 L151.421,46.552 C151.367,46.713 151.317,46.836 151.272,46.916 C151.228,46.997 151.121,47.037 150.963,47.037 L148.508,47.037 C148.328,47.037 148.193,47.001 148.104,46.929 C148.013,46.857 147.949,46.732 147.915,46.552 L144.409,29.374 L144.301,28.861 L144.301,28.833 C144.301,28.78 144.329,28.726 144.383,28.673 C144.436,28.617 144.525,28.573 144.651,28.537 L147.052,28.105 C147.285,28.07 147.443,28.093 147.524,28.173 C147.604,28.254 147.673,28.402 147.725,28.617 L149.344,37.356 C149.416,37.805 149.508,38.52 149.628,39.5 C149.744,40.48 149.847,41.462 149.937,42.453 L149.991,42.453 C150.063,41.661 150.175,40.812 150.329,39.905 C150.481,38.997 150.655,38.146 150.853,37.356 L152.796,28.994 C152.851,28.762 152.921,28.596 153.012,28.497 C153.101,28.398 153.245,28.34 153.443,28.321 L155.412,28.321 C155.537,28.321 155.645,28.368 155.735,28.456 C155.825,28.548 155.905,28.717 155.979,28.969 L157.92,37.356 C158.028,37.841 158.136,38.465 158.243,39.229 C158.351,39.994 158.495,41.068 158.675,42.453 L158.729,42.453 C158.839,41.158 158.931,40.165 159.011,39.473 C159.093,38.78 159.204,38.074 159.348,37.356 L160.969,28.617 C161.004,28.368 161.071,28.21 161.169,28.145 C161.268,28.084 161.425,28.07 161.64,28.105 L163.907,28.537 C164.052,28.573 164.151,28.613 164.203,28.658 C164.256,28.704 164.287,28.753 164.287,28.809 C164.287,28.844 164.28,28.874 164.272,28.901 C164.263,28.928 164.237,29.041 164.203,29.238" fill="#FFFFFF" id="path1128"></path><path d="M15.444,11.072 L18.428,18.473 L16.987,17.576 L16.542,21.701 L14.868,17.91 L12.132,20.681 z M21.864,26.936 L15.444,9.272 L15.406,9.353 L14.792,11.153 L13.522,14.916 L11.887,19.781 L9.516,27.018 L9.067,28.246 L8.576,29.758 L7.636,32.538 L6.655,35.524 L3.219,45.705 L7.512,45.705 C7.595,45.458 7.718,45.213 7.798,44.928 C8.167,43.784 8.535,42.598 8.904,41.492 C9.026,41.125 9.15,40.757 9.23,40.429 L17.49,40.429 L20.639,31.025 L20.842,30.372 L21.946,27.141 z" fill="#FFFFFF" id="path1132"></path><path d="M25.672,34.828 L25.387,34.828 L25.508,34.417 L28.658,24.973 L32.255,34.828 z M30.866,5.428 L34.462,14.22 L32.822,13.673 L32.624,18.545 L30.256,14.23 L26.942,16.877 z M42.806,36.096 L40.515,29.88 L39.491,27.057 L38.555,24.36 L36.956,19.944 L35.282,15.446 L32.827,8.618 L30.866,3.221 L30.866,3.342 L30.292,4.938 L29.311,7.882 L26.899,15.16 L23.834,24.238 L23.302,25.873 L22.892,27.14 L21.79,30.37 L21.584,31.025 L18.434,40.428 L17.903,41.942 L16.267,46.809 L16.431,46.809 L21.462,46.808 C21.584,46.481 21.664,46.153 21.79,45.828 L21.79,45.704 C21.992,45.173 22.155,44.642 22.319,44.069 C22.4,43.824 22.526,43.537 22.606,43.25 C22.606,43.168 22.688,43.046 22.688,42.965 C22.77,42.72 22.851,42.433 22.932,42.188 C22.932,42.146 22.975,42.106 23.014,42.025 C23.014,41.942 23.056,41.778 23.096,41.697 C23.219,41.289 23.342,40.88 23.507,40.47 L34.26,40.47 L36.59,46.808 L46.24,46.808 L46.69,46.808 z" fill="#FFFFFF" id="path1136"></path><path d="M106.931,56.746 L106.288,54.384 C106.196,54.061 106.137,53.845 106.112,53.732 C106.088,53.617 106.064,53.496 106.041,53.368 L106.021,53.368 C105.993,53.524 105.959,53.696 105.92,53.882 C105.88,54.066 105.841,54.234 105.797,54.384 L105.145,56.746 z M104.941,57.494 L104.396,59.545 C104.375,59.61 104.352,59.648 104.325,59.658 C104.301,59.669 104.263,59.674 104.204,59.674 L103.511,59.674 C103.452,59.674 103.417,59.665 103.403,59.648 C103.388,59.63 103.392,59.596 103.413,59.545 L105.583,52.47 C105.591,52.434 105.604,52.406 105.627,52.385 C105.648,52.362 105.687,52.352 105.743,52.352 L106.373,52.352 C106.424,52.352 106.46,52.362 106.483,52.385 C106.503,52.406 106.52,52.434 106.535,52.47 L108.715,59.545 C108.721,59.582 108.723,59.608 108.72,59.626 C108.716,59.644 108.707,59.657 108.693,59.664 C108.685,59.67 108.677,59.674 108.668,59.674 L108.587,59.674 L107.881,59.674 C107.831,59.674 107.796,59.665 107.773,59.648 C107.753,59.63 107.737,59.6 107.732,59.556 L107.132,57.494 z" fill="#FFFFFF" id="path1140"></path><path d="M113.236,58.926 L113.897,58.926 C114.276,58.926 114.596,58.849 114.853,58.697 C115.116,58.542 115.321,58.293 115.471,57.944 C115.561,57.73 115.631,57.458 115.672,57.132 C115.715,56.804 115.74,56.421 115.748,55.988 C115.755,55.374 115.712,54.861 115.62,54.449 C115.527,54.034 115.369,53.721 115.149,53.508 C114.993,53.365 114.813,53.261 114.609,53.198 C114.405,53.133 114.144,53.101 113.823,53.101 L113.236,53.101 z M112.485,52.352 L113.835,52.352 C114.256,52.352 114.611,52.39 114.903,52.465 C115.193,52.54 115.449,52.652 115.661,52.801 C116.025,53.08 116.292,53.496 116.463,54.048 C116.633,54.6 116.716,55.268 116.709,56.05 C116.703,56.578 116.665,57.025 116.597,57.392 C116.529,57.76 116.424,58.081 116.283,58.36 C116.047,58.801 115.735,59.132 115.347,59.348 C114.959,59.566 114.415,59.674 113.717,59.674 L112.485,59.674 C112.437,59.674 112.403,59.666 112.38,59.649 C112.359,59.63 112.351,59.596 112.359,59.545 L112.359,52.482 C112.359,52.438 112.367,52.408 112.385,52.39 C112.403,52.373 112.437,52.361 112.485,52.352" fill="#FFFFFF" id="path1144"></path><path d="M124.565,52.661 L122.695,59.63 C122.68,59.666 122.663,59.694 122.641,59.717 C122.62,59.737 122.584,59.746 122.535,59.746 L121.788,59.746 C121.729,59.741 121.689,59.729 121.669,59.71 C121.648,59.692 121.632,59.666 121.625,59.63 L119.777,52.65 C119.748,52.573 119.736,52.536 119.74,52.538 C119.743,52.542 119.745,52.541 119.745,52.533 C119.745,52.512 119.751,52.493 119.761,52.48 C119.772,52.465 119.801,52.452 119.851,52.437 L120.195,52.35 L120.46,52.288 C120.511,52.28 120.548,52.281 120.573,52.293 C120.6,52.302 120.621,52.34 120.641,52.405 L122.001,58.028 C122.007,58.085 122.028,58.21 122.064,58.406 C122.1,58.602 122.129,58.761 122.151,58.884 L122.172,58.884 C122.185,58.74 122.204,58.605 122.231,58.476 C122.255,58.348 122.288,58.205 122.331,58.048 L123.689,52.448 C123.696,52.397 123.705,52.364 123.715,52.345 C123.728,52.328 123.739,52.312 123.755,52.298 C123.76,52.29 123.772,52.285 123.789,52.281 C123.808,52.278 123.839,52.28 123.881,52.288 L124.469,52.437 C124.511,52.452 124.545,52.468 124.565,52.485 C124.587,52.502 124.597,52.522 124.597,52.544 L124.597,52.548 C124.597,52.546 124.587,52.584 124.565,52.661" fill="#FFFFFF" id="path1148"></path><path d="M129.579,58.98 L130.552,58.98 C130.593,58.98 130.627,58.99 130.647,59.012 C130.668,59.034 130.68,59.064 130.68,59.108 L130.68,59.545 C130.68,59.596 130.668,59.63 130.647,59.648 C130.627,59.666 130.593,59.674 130.552,59.674 L127.729,59.674 C127.677,59.674 127.644,59.666 127.623,59.648 C127.601,59.63 127.593,59.596 127.601,59.545 L127.601,59.108 C127.601,59.064 127.609,59.036 127.628,59.017 C127.645,59 127.677,58.986 127.729,58.98 L128.701,58.98 L128.701,53.048 L127.729,53.048 C127.677,53.048 127.644,53.037 127.623,53.021 C127.601,53.004 127.593,52.969 127.601,52.92 L127.601,52.481 C127.601,52.438 127.609,52.408 127.628,52.39 C127.645,52.373 127.677,52.361 127.729,52.352 L130.552,52.352 C130.593,52.352 130.627,52.364 130.647,52.385 C130.668,52.406 130.68,52.438 130.68,52.481 L130.68,52.92 C130.68,52.969 130.668,53.004 130.647,53.021 C130.627,53.037 130.593,53.048 130.552,53.048 L129.579,53.048 z" fill="#FFFFFF" id="path1152"></path><path d="M137.779,52.854 L137.596,53.314 C137.58,53.342 137.564,53.365 137.548,53.384 C137.528,53.401 137.513,53.41 137.501,53.41 C137.484,53.417 137.471,53.417 137.457,53.41 C137.443,53.402 137.396,53.378 137.319,53.336 C136.947,53.157 136.677,53.048 136.505,53.009 C136.335,52.969 136.168,52.949 136.001,52.949 C135.639,52.949 135.359,53.05 135.159,53.249 C134.959,53.449 134.86,53.705 134.86,54.02 C134.86,54.312 134.943,54.561 135.107,54.766 C135.269,54.974 135.628,55.216 136.185,55.494 C136.413,55.616 136.596,55.721 136.735,55.809 C136.875,55.898 137.004,55.986 137.127,56.072 C137.403,56.292 137.616,56.542 137.761,56.82 C137.907,57.098 137.981,57.401 137.981,57.729 C137.973,58.298 137.776,58.792 137.388,59.204 C136.999,59.616 136.461,59.824 135.777,59.824 C135.473,59.824 135.147,59.778 134.801,59.688 C134.455,59.6 134.145,59.486 133.875,59.342 C133.763,59.285 133.7,59.252 133.695,59.241 C133.688,59.23 133.683,59.218 133.683,59.204 C133.683,59.189 133.685,59.173 133.689,59.156 C133.692,59.138 133.699,59.117 133.704,59.096 L133.888,58.636 C133.892,58.614 133.907,58.596 133.924,58.578 C133.941,58.558 133.961,58.549 133.983,58.541 C133.999,58.541 134.017,58.549 134.041,58.562 C134.065,58.576 134.125,58.605 134.219,58.646 C134.432,58.769 134.675,58.872 134.949,58.957 C135.225,59.042 135.487,59.082 135.736,59.074 C136.135,59.082 136.445,58.968 136.672,58.733 C136.896,58.497 137.012,58.198 137.019,57.834 C137.019,57.542 136.936,57.286 136.772,57.066 C136.608,56.844 136.213,56.56 135.585,56.21 C134.909,55.84 134.459,55.505 134.235,55.205 C134.011,54.908 133.896,54.542 133.896,54.116 C133.896,53.594 134.08,53.146 134.448,52.77 C134.815,52.39 135.321,52.202 135.971,52.202 C136.269,52.209 136.561,52.249 136.848,52.32 C137.133,52.39 137.396,52.492 137.637,52.62 C137.709,52.661 137.756,52.697 137.779,52.726 C137.799,52.754 137.799,52.798 137.779,52.854" fill="#FFFFFF" id="path1156"></path><path d="M143.645,59.108 C144.123,59.108 144.483,58.892 144.729,58.461 C144.977,58.03 145.099,57.212 145.099,56.008 C145.091,54.854 144.972,54.05 144.735,53.598 C144.5,53.145 144.136,52.92 143.645,52.92 C143.167,52.92 142.807,53.136 142.561,53.572 C142.313,54.005 142.192,54.82 142.192,56.008 C142.192,57.212 142.312,58.03 142.555,58.461 C142.796,58.892 143.16,59.108 143.645,59.108 M143.645,59.824 C142.817,59.824 142.209,59.488 141.817,58.814 C141.425,58.141 141.229,57.205 141.229,56.008 C141.229,54.697 141.445,53.736 141.876,53.122 C142.305,52.509 142.896,52.202 143.645,52.202 C144.457,52.202 145.063,52.54 145.461,53.213 C145.86,53.886 146.06,54.82 146.06,56.008 C146.06,57.205 145.86,58.141 145.461,58.814 C145.063,59.488 144.457,59.824 143.645,59.824" fill="#FFFFFF" id="path1160"></path><path d="M150.819,55.644 L151.512,55.644 C152.069,55.644 152.456,55.532 152.679,55.302 C152.897,55.074 153.013,54.746 153.02,54.318 C153.013,53.905 152.915,53.598 152.725,53.398 C152.536,53.2 152.176,53.1 151.64,53.1 L150.819,53.1 z M152.485,56.264 L154.26,59.502 C154.275,59.532 154.285,59.554 154.292,59.572 C154.297,59.59 154.301,59.604 154.301,59.61 C154.295,59.638 154.285,59.657 154.271,59.664 C154.255,59.67 154.227,59.681 154.185,59.696 L153.512,59.824 C153.468,59.824 153.436,59.82 153.415,59.813 C153.393,59.806 153.372,59.781 153.349,59.737 L151.587,56.338 L150.819,56.338 L150.819,59.545 C150.819,59.594 150.807,59.63 150.785,59.648 C150.764,59.665 150.732,59.673 150.689,59.673 L150.068,59.673 C150.02,59.673 149.984,59.665 149.963,59.648 C149.941,59.63 149.935,59.594 149.941,59.545 L149.941,52.481 C149.941,52.438 149.949,52.408 149.968,52.39 C149.985,52.372 150.02,52.36 150.068,52.352 L151.727,52.352 C152.475,52.36 153.021,52.514 153.372,52.817 C153.721,53.118 153.896,53.585 153.896,54.212 C153.896,54.697 153.777,55.121 153.537,55.484 C153.3,55.846 152.948,56.108 152.485,56.264" fill="#FFFFFF" id="path1164"></path><path d="M159.859,56.564 L159.859,59.545 C159.852,59.594 159.84,59.63 159.824,59.648 C159.803,59.665 159.775,59.674 159.731,59.674 L159.109,59.674 C159.061,59.674 159.025,59.665 159.004,59.648 C158.983,59.63 158.976,59.594 158.983,59.545 L158.983,56.585 L156.909,52.652 C156.888,52.624 156.877,52.606 156.877,52.597 L156.877,52.565 C156.877,52.537 156.885,52.513 156.904,52.492 C156.923,52.47 156.948,52.453 156.984,52.438 L157.359,52.352 L157.624,52.289 C157.655,52.281 157.677,52.28 157.695,52.282 C157.713,52.286 157.728,52.289 157.744,52.289 C157.759,52.296 157.771,52.306 157.78,52.32 C157.792,52.334 157.811,52.366 157.84,52.416 L159.464,55.762 C159.493,55.684 159.519,55.616 159.544,55.56 C159.568,55.501 159.641,55.348 159.764,55.1 L161.068,52.394 C161.097,52.33 161.124,52.296 161.152,52.289 C161.18,52.281 161.22,52.281 161.271,52.289 L161.913,52.438 C161.925,52.445 161.94,52.453 161.955,52.46 C161.968,52.466 161.984,52.477 161.997,52.492 C162.004,52.513 162.011,52.536 162.013,52.56 C162.017,52.586 162.007,52.616 161.987,52.652 z" fill="#FFFFFF" id="path1168"></path></g></svg> 